<svg xmlns="http://www.w3.org/2000/svg" viewBox="0 0 128 128" shape-rendering="crispEdges" role="img" aria-labelledby="title desc">
  <title id="title">Diverse pixel animal background</title>
  <desc id="desc">A soft pixel art background pattern with cats, dogs, goats, paw prints, bones, fish, and flowers.</desc>
  <rect width="128" height="128" fill="#fff9dc"/>

  <!-- Cat face -->
  <rect x="10" y="14" width="4" height="4" fill="#2f4356"/>
  <rect x="26" y="14" width="4" height="4" fill="#2f4356"/>
  <rect x="8" y="18" width="24" height="16" fill="#2f4356"/>
  <rect x="10" y="16" width="4" height="4" fill="#ff8bad"/>
  <rect x="26" y="16" width="4" height="4" fill="#ff8bad"/>
  <rect x="12" y="20" width="16" height="12" fill="#4d6a80"/>
  <rect x="14" y="24" width="3" height="3" fill="#d6f6ff"/>
  <rect x="23" y="24" width="3" height="3" fill="#d6f6ff"/>
  <rect x="19" y="27" width="2" height="2" fill="#ff8bad"/>
  <rect x="17" y="30" width="6" height="1" fill="#1b2730"/>
  <rect x="6" y="26" width="5" height="1" fill="#1b2730"/>
  <rect x="29" y="26" width="5" height="1" fill="#1b2730"/>

  <!-- Dog face -->
  <rect x="82" y="12" width="18" height="4" fill="#6b3f22"/>
  <rect x="78" y="16" width="26" height="18" fill="#d99a6c"/>
  <rect x="74" y="18" width="6" height="12" fill="#6b3f22"/>
  <rect x="102" y="18" width="6" height="12" fill="#6b3f22"/>
  <rect x="84" y="20" width="4" height="4" fill="#1b1b1b"/>
  <rect x="94" y="20" width="4" height="4" fill="#1b1b1b"/>
  <rect x="89" y="25" width="4" height="3" fill="#2b160a"/>
  <rect x="86" y="29" width="10" height="2" fill="#fff2c8"/>
  <rect x="80" y="16" width="6" height="3" fill="#f2c199"/>

  <!-- Goat face -->
  <rect x="22" y="78" width="4" height="5" fill="#8b6b2f"/>
  <rect x="40" y="78" width="4" height="5" fill="#8b6b2f"/>
  <rect x="18" y="84" width="28" height="19" fill="#473728"/>
  <rect x="21" y="82" width="22" height="21" fill="#ece3cc"/>
  <rect x="16" y="88" width="5" height="8" fill="#d6c9aa"/>
  <rect x="43" y="88" width="5" height="8" fill="#d6c9aa"/>
  <rect x="26" y="90" width="4" height="4" fill="#1b1b1b"/>
  <rect x="36" y="90" width="4" height="4" fill="#1b1b1b"/>
  <rect x="31" y="95" width="4" height="3" fill="#d99a6c"/>
  <rect x="29" y="100" width="8" height="2" fill="#9b8b70"/>
  <rect x="22" y="84" width="6" height="3" fill="#ffffff"/>
  <rect x="36" y="84" width="6" height="3" fill="#ffffff"/>

  <!-- Paw print -->
  <rect x="86" y="82" width="5" height="5" fill="#85d8ee"/>
  <rect x="98" y="82" width="5" height="5" fill="#85d8ee"/>
  <rect x="80" y="92" width="5" height="5" fill="#85d8ee"/>
  <rect x="104" y="92" width="5" height="5" fill="#85d8ee"/>
  <rect x="90" y="92" width="10" height="8" fill="#85d8ee"/>
  <rect x="88" y="98" width="14" height="6" fill="#85d8ee"/>
  <rect x="92" y="88" width="2" height="2" fill="#e8fbff"/>

  <!-- Bone -->
  <rect x="56" y="20" width="4" height="4" fill="#f67c9c"/>
  <rect x="64" y="20" width="4" height="4" fill="#f67c9c"/>
  <rect x="58" y="22" width="8" height="3" fill="#f67c9c"/>
  <rect x="56" y="25" width="4" height="4" fill="#f67c9c"/>
  <rect x="64" y="25" width="4" height="4" fill="#f67c9c"/>
  <rect x="58" y="23" width="8" height="2" fill="#ffacc0"/>

  <!-- Fish -->
  <rect x="58" y="92" width="14" height="8" fill="#6fcbe6"/>
  <rect x="72" y="94" width="5" height="4" fill="#6fcbe6"/>
  <rect x="54" y="94" width="4" height="4" fill="#3aa6c7"/>
  <rect x="61" y="94" width="2" height="2" fill="#0f2a35"/>
  <rect x="65" y="91" width="4" height="1" fill="#e8fbff"/>

  <!-- Flowers -->
  <rect x="54" y="56" width="5" height="5" fill="#f67c9c"/>
  <rect x="62" y="56" width="5" height="5" fill="#f67c9c"/>
  <rect x="58" y="52" width="5" height="5" fill="#f67c9c"/>
  <rect x="58" y="60" width="5" height="5" fill="#f67c9c"/>
  <rect x="59" y="57" width="3" height="3" fill="#fff2c8"/>
  <rect x="60" y="65" width="2" height="7" fill="#7b4a2f"/>

  <rect x="108" y="54" width="4" height="4" fill="#ff8bad"/>
  <rect x="114" y="54" width="4" height="4" fill="#ff8bad"/>
  <rect x="111" y="51" width="4" height="4" fill="#ff8bad"/>
  <rect x="111" y="57" width="4" height="4" fill="#ff8bad"/>
  <rect x="112" y="55" width="2" height="2" fill="#fff2c8"/>

  <!-- Small accent paws for variety -->
  <rect x="8" y="56" width="3" height="3" fill="#85d8ee"/>
  <rect x="16" y="56" width="3" height="3" fill="#85d8ee"/>
  <rect x="12" y="62" width="5" height="4" fill="#85d8ee"/>
  <rect x="116" y="104" width="3" height="3" fill="#f67c9c"/>
  <rect x="122" y="104" width="3" height="3" fill="#f67c9c"/>
  <rect x="119" y="110" width="5" height="4" fill="#f67c9c"/>
</svg>
